HIERARCHY
ROOT pelvis
{
	OFFSET 0.00 0.00 0.00
	CHANNELS 6 Xposition Yposition Zposition Xrotation Yrotation Zrotation
	JOINT lfemur
	{
		OFFSET 0.00000 4.04436 0.00000
		CHANNELS 3 Xrotation Yrotation Zrotation
		JOINT ltibia
		{
			OFFSET 0.00000 0.00000 -16.29375
			CHANNELS 3 Xrotation Yrotation Zrotation
			JOINT lfoot
			{
				OFFSET 0.00000 0.00000 -15.07135
				CHANNELS 3 Xrotation Yrotation Zrotation
				JOINT ltoes
				{
					OFFSET 4.08523 0.00000 0.00000
					CHANNELS 3 Xrotation Yrotation Zrotation
				}
			}
		}
	}
	JOINT rfemur
	{
		OFFSET 0.00000 -4.04436 0.00000
		CHANNELS 3 Xrotation Yrotation Zrotation
		JOINT rtibia
		{
			OFFSET 0.00000 0.00000 -16.29375
			CHANNELS 3 Xrotation Yrotation Zrotation
			JOINT rfoot
			{
				OFFSET 0.00000 0.00000 -15.07135
				CHANNELS 3 Xrotation Yrotation Zrotation
				JOINT rtoes
				{
					OFFSET 4.08523 0.00000 0.00000
					CHANNELS 3 Xrotation Yrotation Zrotation
				}
			}
		}
	}
	JOINT thorax
	{
		OFFSET -1.96850 0.00000 3.38723
		CHANNELS 6 Xposition Yposition Zposition Xrotation Yrotation Zrotation
		JOINT head
		{
			OFFSET 0.00000 0.00000 16.93583
			CHANNELS 6 Xposition Yposition Zposition Xrotation Yrotation Zrotation
		}
		JOINT lclavicle
		{
			OFFSET 0.00000 0.00000 14.46426
			CHANNELS 3 Xrotation Yrotation Zrotation
			JOINT lhumerus
			{
				OFFSET 0.00000 6.07503 0.73740
				CHANNELS 3 Xrotation Yrotation Zrotation
				JOINT lradius
				{
					OFFSET 0.00000 0.00000 -10.44175
					CHANNELS 3 Xrotation Yrotation Zrotation
					JOINT lhand
					{
						OFFSET 0.00000 0.00000 -9.67100
						CHANNELS 3 Xrotation Yrotation Zrotation
					}
				}
			}
		}
		JOINT rclavicle
		{
			OFFSET 0.00000 0.00000 14.46426
			CHANNELS 3 Xrotation Yrotation Zrotation
			JOINT rhumerus
			{
				OFFSET 0.00000 -6.07503 0.73740
				CHANNELS 3 Xrotation Yrotation Zrotation
				JOINT rradius
				{
					OFFSET 0.00000 0.00000 -10.44175
					CHANNELS 3 Xrotation Yrotation Zrotation
					JOINT rhand
					{
						OFFSET 0.00000 0.00000 -9.67100
						CHANNELS 3 Xrotation Yrotation Zrotation
					}
				}
			}
		}
	}
}
MOTION
Frames: 15
Frame Time:	0.0333333
 42.0669 10.7405 30.6612 -3.7624 -13.5594 -100.3117 -15.7883 -13.8212 14.2133 -0.0000 37.7399 0.0000 0.0000 -0.7826 11.5234 0.0000 -15.6608 -0.0000 -7.7677 -23.2731 12.8025 -0.0000 56.0607 0.0000 -0.0000 -8.4817 -10.8094 0.0000 -21.0650 0.0000 38.5167 13.0570 34.9994 -26.8485 9.3564 26.0835 42.5850 9.6058 50.8573 -2.8887 -23.6320 -12.8116 -6.8614 0.0000 6.7396 46.2038 1.2752 -5.0832 -180.0000 -55.5644 123.3473 -37.9906 3.0426 -0.0000 0.1676 0.0000 12.9884 -43.7581 -6.7537 -58.7492 0.0000 -79.4767 60.7281 0.9899 1.4940 -0.0000
 42.2833 10.7131 30.5269 -3.7443 -14.3194 -99.6185 -17.5003 -14.0797 12.4917 -0.0000 37.9650 0.0000 0.0000 -1.6826 12.8884 0.0000 -14.2521 0.0000 -8.9035 -23.7031 12.4801 -0.0000 57.1764 0.0000 0.0000 -9.2629 -11.3020 0.0000 -21.1358 -0.0000 38.6547 13.0725 34.7939 -27.4305 9.1727 29.4064 42.6613 9.7515 50.7956 -2.3574 -22.4846 -17.2571 -10.4584 0.0000 5.8872 37.5798 -5.6463 -8.7613 180.0000 -45.4278 124.9565 -38.3736 2.0040 -0.0000 2.1799 0.0000 12.5373 -41.4428 -3.2334 -66.9592 -0.0000 -80.7183 58.6308 3.5056 1.9993 0.0000
 42.3062 10.5562 30.9762 -2.7291 -12.2479 -95.2133 -16.3653 -12.3148 9.0120 -0.0000 34.8685 0.0000 -0.0000 0.2969 11.9807 0.0000 -14.4706 0.0000 -8.0926 -20.6448 9.6198 -0.0000 52.6183 0.0000 0.0000 -7.3286 -12.8175 0.0000 -20.9070 0.0000 39.0554 12.8819 35.1960 -23.2049 8.9447 27.3109 42.6396 9.9059 51.3459 -2.0578 -19.9039 -19.9346 -12.5601 0.0000 3.1862 27.5466 -10.3138 -13.0130 180.0000 -39.4874 127.7573 -38.5442 1.2418 -0.0000 5.1602 0.0000 11.1901 -35.9072 0.8124 -69.0621 0.0000 -89.6367 54.9312 2.0587 3.0470 -0.0000
 42.1694 10.3357 31.7286 -1.4963 -9.1756 -88.7679 -13.7217 -9.2966 5.0717 -0.0000 29.0048 0.0000 -0.0000 4.2734 9.3053 0.0000 -15.5997 0.0000 -6.3608 -15.4339 5.6151 -0.0000 43.9220 0.0000 0.0000 -3.5214 -14.5692 0.0000 -21.2454 0.0000 39.7068 12.6343 35.9363 -16.7650 8.4983 20.4819 42.5115 10.0011 52.2470 -2.3666 -17.4412 -20.5301 -12.7710 0.0000 0.7420 18.6732 -16.4154 -16.7182 -180.0000 -38.1448 130.7219 -35.9948 0.9381 -0.0000 7.8658 -0.0000 10.0248 -29.2918 5.2949 -67.9403 180.0000 -78.7521 -126.5231 2.0463 4.4079 0.0000
 42.0034 10.1560 32.4834 0.3216 -5.8019 -82.0729 -10.7890 -7.3762 -0.0538 -0.0000 22.5367 -0.0000 0.0000 8.9493 7.4668 0.0000 -16.7336 -0.0000 -4.0495 -10.8275 1.3414 -0.0000 33.7273 0.0000 0.0000 1.5503 -15.9979 0.0000 -21.5308 -0.0000 40.6356 12.4845 36.6511 -9.3142 6.6762 10.5532 42.2754 10.0591 53.0630 -3.6285 -15.7290 -18.6646 -10.7969 0.0000 -0.7623 12.8896 -24.2665 -19.8256 -180.0000 -40.3183 130.0017 -27.1006 1.4999 -0.0000 9.7776 -0.0000 8.9602 -24.0562 8.4008 -65.9985 -180.0000 -68.4180 -125.1660 2.9291 4.4615 -0.0000
 41.8259 10.0575 33.0154 2.3422 -2.4704 -77.1113 -7.9345 -7.4475 -4.2716 -0.0000 17.8650 0.0000 -0.0000 12.3965 6.4900 0.0000 -16.7624 -0.0000 -1.4576 -7.9273 -2.2660 -0.0000 24.3839 0.0000 0.0000 6.2944 -16.5889 0.0000 -20.9244 -0.0000 41.6845 12.5067 37.1369 -2.1270 3.6064 1.1074 41.9908 10.0920 53.5448 -5.4125 -15.2504 -15.4184 -6.9540 0.0000 -1.8228 10.1930 -32.5060 -19.7187 -180.0000 -44.2228 125.3400 -21.4548 2.0626 -0.0000 10.9791 -0.0000 7.6097 -21.2668 9.8937 -62.5497 180.0000 -60.5096 -124.0024 1.8453 3.7182 -0.0000
 41.6795 10.0367 33.2640 3.8494 0.3154 -74.5096 -5.7129 -8.4765 -7.3090 -0.0000 15.4589 -0.0000 0.0000 13.7673 6.7427 0.0000 -16.3408 -0.0000 0.8954 -6.1100 -4.5193 -0.0000 16.9844 -0.0000 0.0000 10.0355 -16.2123 0.0000 -20.7442 0.0000 42.6592 12.5878 37.3101 3.6742 0.5460 -5.4742 41.7031 10.0976 53.6727 -6.8461 -15.8078 -12.6048 -1.6312 0.0000 -2.8176 9.0778 -40.1956 -16.0625 -180.0000 -49.4059 124.0750 -22.0048 2.5132 -0.0000 12.0682 -0.0000 5.6333 -20.6311 10.3472 -58.3707 180.0000 -54.7344 -123.0028 1.9092 3.8641 0.0000
 41.5957 10.0892 33.2856 4.5373 1.9880 -73.8336 -4.6201 -9.3422 -10.0703 -0.0000 14.8448 0.0000 0.0000 13.3491 8.7879 0.0000 -15.8114 -0.0000 2.3818 -4.6798 -6.4759 -0.0000 11.8181 0.0000 0.0000 11.7839 -14.5481 0.0000 -20.5584 -0.0000 43.4625 12.6810 37.2546 7.7110 -1.2331 -9.2654 41.4314 10.1123 53.5566 -7.6145 -16.8752 -10.7310 4.1399 -0.0000 -3.5592 8.8520 -46.9950 -11.0421 180.0000 -56.6304 125.1473 -22.7677 2.7935 -0.0000 12.8323 -0.0000 3.4068 -19.9794 10.5341 -54.8528 -180.0000 -50.6013 -123.0105 0.5761 4.0868 -0.0000
 41.5790 10.1684 33.2095 4.6818 2.3949 -75.3332 -4.5561 -9.6389 -11.5530 -0.0000 15.1456 -0.0000 0.0000 12.2360 11.8169 0.0000 -15.0316 -0.0000 2.8705 -3.6463 -7.0251 -0.0000 8.7817 -0.0000 0.0000 12.1142 -12.6708 0.0000 -20.3484 -0.0000 44.0686 12.6923 37.1296 10.1156 -1.8456 -10.4902 41.2329 10.1431 53.3526 -7.4769 -17.8921 -9.3497 9.1681 -0.0000 -3.0585 7.3251 -52.1133 -7.3630 -180.0000 -65.9105 122.4440 -23.6406 3.0282 -0.0000 13.5114 0.0000 1.8327 -18.3843 11.8933 -52.5247 180.0000 -46.9991 -122.6206 -0.0647 3.4816 -0.0000
 41.6323 10.2373 33.1651 4.3947 2.4983 -79.2685 -4.3489 -9.5574 -10.3127 -0.0000 16.0007 -0.0000 0.0000 10.9229 14.4523 0.0000 -14.0129 -0.0000 3.1174 -3.3344 -5.5507 -0.0000 7.7787 0.0000 0.0000 12.5252 -10.7658 0.0000 -20.0390 0.0000 44.5750 12.5962 37.0863 12.3723 -1.6906 -9.6796 41.0352 10.2127 53.2155 -7.5476 -18.3509 -7.6274 12.3326 -0.0000 -1.6903 4.5354 -54.5258 -4.4634 180.0000 -75.3021 120.1524 -25.2729 2.9494 -0.0000 13.8297 -0.0000 1.0275 -16.3889 13.9554 -49.9467 -180.0000 -44.3662 -122.2442 0.1255 2.9973 0.0000
 41.7689 10.2838 33.1922 4.2175 2.7168 -84.4852 -3.8497 -9.4112 -7.2645 -0.0000 16.6521 -0.0000 0.0000 10.1216 16.4399 0.0000 -13.3145 0.0000 3.2406 -3.6552 -3.5695 -0.0000 7.6816 0.0000 0.0000 13.5180 -8.1363 0.0000 -19.8935 0.0000 45.0286 12.4453 37.1839 14.8393 -1.3833 -8.5941 40.7720 10.3416 53.1534 -8.1828 -18.2837 -4.6509 13.3567 -0.0000 -0.6282 3.6000 -54.2876 -0.1088 180.0000 -83.1453 118.1509 -24.2305 2.4338 -0.0000 13.3949 0.0000 0.6347 -15.1404 15.3137 -44.7728 180.0000 -43.5353 -122.4935 -0.3641 2.6022 0.0000
 41.9352 10.3225 33.2298 4.4172 2.7161 -89.5431 -3.4291 -9.2788 -3.0491 -0.0000 16.5911 0.0000 -0.0000 9.5656 17.1252 -0.0000 -12.5846 -0.0000 3.0754 -4.4062 -1.6728 -0.0000 7.8178 0.0000 0.0000 14.4967 -5.2700 0.0000 -20.1523 -0.0000 45.4090 12.2932 37.3204 16.8650 -1.2298 -8.1353 40.5001 10.5323 53.1091 -8.8267 -17.8982 -1.0661 13.5230 -0.0000 -0.6260 4.5278 -52.7336 6.2267 180.0000 -89.5874 116.1420 -22.7298 2.1040 -0.0000 12.4560 -0.0000 0.2140 -15.2159 15.6750 -37.3223 -180.0000 -43.7530 -121.8172 -0.1973 2.1794 0.0000
 42.0962 10.3756 33.2262 4.5270 2.3721 -93.8887 -3.3184 -9.2181 1.2808 -0.0000 16.6959 0.0000 0.0000 9.1072 17.0208 0.0000 -12.4896 -0.0000 2.7301 -5.3586 0.9497 -0.0000 8.6010 -0.0000 0.0000 14.7003 -3.8368 0.0000 -20.5073 0.0000 45.6745 12.1256 37.4128 18.1473 -1.0530 -8.2959 40.2572 10.7499 53.0665 -9.1578 -17.3847 2.2574 13.5279 0.0000 -1.6271 6.2336 -50.6448 13.7046 0.0000 -84.6054 -64.6878 -21.6411 2.1841 -0.0000 11.6247 -0.0000 -0.3961 -16.1695 15.7522 -28.9621 180.0000 -43.9974 -121.5776 -0.2318 1.6105 -0.0000
 42.2650 10.4676 33.1540 4.1949 2.0322 -97.9932 -3.2203 -9.7648 5.1719 -0.0000 18.7246 0.0000 0.0000 8.1235 17.1139 0.0000 -13.0489 -0.0000 2.5926 -6.8770 4.6354 -0.0000 11.2849 0.0000 0.0000 13.7251 -3.6059 0.0000 -20.6018 0.0000 45.8926 12.0129 37.4572 19.3199 -0.1158 -8.8471 39.9916 10.9623 52.9860 -9.8253 -17.5141 5.3578 13.1852 -0.0000 -3.0809 8.9147 -47.8452 21.7455 0.0000 -79.3592 -65.1927 -18.5054 2.0108 -0.0000 11.0623 -0.0000 -1.1924 -17.3930 15.0066 -20.6343 -180.0000 -43.8993 -122.2846 -0.2586 0.9365 0.0000
 42.4267 10.6192 32.9587 3.5431 2.0046 -102.4954 -2.6388 -11.4958 8.4391 -0.0000 23.7083 0.0000 0.0000 6.2817 18.1974 0.0000 -14.1526 0.0000 3.3045 -9.7483 9.5271 -0.0000 17.2099 0.0000 0.0000 11.6223 -3.9491 0.0000 -20.6505 -0.0000 46.1367 12.0293 37.4043 20.7389 2.0745 -9.4730 39.7184 11.1149 52.7754 -10.7153 -19.0582 8.6413 12.2901 -0.0000 -4.6814 12.8864 -44.2781 29.8241 0.0000 -74.8745 -65.9222 -14.2077 1.6419 -0.0000 10.8809 -0.0000 -2.1293 -18.8661 12.7693 -12.0897 180.0000 -43.6189 -123.5640 -0.6230 -0.0800 -0.0000
